<svg xmlns="http://www.w3.org/2000/svg" xmlns:xlink="http://www.w3.org/1999/xlink" viewBox="0 0 680 1040" width="680" height="680" preserveAspectRatio="xMidYMid meet" style="width: 100%; height: 100%; transform: translate3d(0px, 0px, 0px); content-visibility: visible;"><defs><clipPath id="__lottie_element_4269"><rect width="680" height="1040" x="0" y="0"></rect></clipPath></defs><g clip-path="url(#__lottie_element_4269)"><g transform="matrix(0.9971320629119873,0,0,1.111109972000122,106.67110443115234,363.1466064453125)" opacity="1" style="display: block;"><g opacity="1" transform="matrix(1,0,0,1,74.86499786376953,81.0770034790039)"><path fill="rgb(179,227,115)" fill-opacity="1" d=" M60.053001403808594,68.79299926757812 C57.641998291015625,74.77200317382812 52.02399826049805,78.78399658203125 45.58700180053711,79.125 C21.216999053955078,80.41200256347656 -25.256999969482422,69.68800354003906 -49.685001373291016,35.48400115966797 C-74.11199951171875,1.2799999713897705 -69.1780014038086,-46.15999984741211 -60.053001403808594,-68.79399871826172 C-57.643001556396484,-74.77200317382812 -52.02399826049805,-78.78500366210938 -45.58700180053711,-79.125 C-21.216999053955078,-80.41300201416016 25.256999969482422,-69.68699645996094 49.683998107910156,-35.48400115966797 C74.11199951171875,-1.2799999713897705 69.1780014038086,46.15999984741211 60.053001403808594,68.79299926757812z"></path></g></g><g transform="matrix(0.9971320629119873,0,0,1.111109972000122,422.761962890625,348.1014099121094)" opacity="1" style="display: block;"><g opacity="1" transform="matrix(1,0,0,1,75.13500213623047,81.0770034790039)"><path fill="rgb(179,227,115)" fill-opacity="1" d=" M-60.053001403808594,68.79299926757812 C-57.643001556396484,74.77200317382812 -52.02399826049805,78.78399658203125 -45.58599853515625,79.125 C-21.216999053955078,80.41200256347656 25.257999420166016,69.68800354003906 49.683998107910156,35.48400115966797 C74.11199951171875,1.2799999713897705 69.1780014038086,-46.15999984741211 60.053001403808594,-68.79399871826172 C57.641998291015625,-74.77200317382812 52.02399826049805,-78.78500366210938 45.58700180053711,-79.125 C21.218000411987305,-80.41300201416016 -25.256999969482422,-69.68699645996094 -49.685001373291016,-35.48400115966797 C-74.11199951171875,-1.2799999713897705 -69.1780014038086,46.15999984741211 -60.053001403808594,68.79299926757812z"></path></g></g><g transform="matrix(0.9971320629119873,0,0,1.111109972000122,210.37283325195312,274.9347839355469)" opacity="1" style="display: block;"><g opacity="1" transform="matrix(1,0,0,1,84.56199645996094,117.4540023803711)"><path fill="rgb(106,174,153)" fill-opacity="1" d=" M37.11899948120117,106.44999694824219 C31.777999877929688,112.16400146484375 23.70199966430664,114.14399719238281 16.323999404907227,111.54900360107422 C-11.605999946594238,101.72100067138672 -59.0620002746582,67.91699981689453 -71.41999816894531,17.507999420166016 C-83.7770004272461,-32.9010009765625 -57.33599853515625,-84.81999969482422 -37.117000579833984,-106.44999694824219 C-31.777000427246094,-112.16400146484375 -23.701000213623047,-114.14399719238281 -16.322999954223633,-111.5479965209961 C11.607000350952148,-101.72000122070312 59.06399917602539,-67.91699981689453 71.41999816894531,-17.507999420166016 C83.77799987792969,32.900001525878906 57.33700180053711,84.81900024414062 37.11899948120117,106.44999694824219z"></path></g><g opacity="1" transform="matrix(1,0,0,1,90.39399719238281,118.375)"><path stroke-linecap="round" stroke-linejoin="miter" fill-opacity="0" stroke-miterlimit="10" stroke="rgb(66,152,126)" stroke-opacity="1" stroke-width="15" d=" M-20.510000228881836,-80.73799896240234 C19.636999130249023,-30.517000198364258 19.88599967956543,43.34400177001953 20.510000228881836,80.73799896240234"></path></g></g><g transform="matrix(0.9971320629119873,0,0,1.111109972000122,319.06024169921875,331.04583740234375)" opacity="1" style="display: block;"><g opacity="1" transform="matrix(1,0,0,1,81.68900299072266,81.90699768066406)"><path fill="rgb(235,99,95)" fill-opacity="1" d=" M-80.65799713134766,45.750999450683594 C-45.750999450683594,80.65799713134766 10.845000267028809,80.65799713134766 45.750999450683594,45.750999450683594 C80.65799713134766,10.843999862670898 80.65799713134766,-45.750999450683594 45.750999450683594,-80.65799713134766 C45.750999450683594,-80.65799713134766 -80.65799713134766,45.750999450683594 -80.65799713134766,45.750999450683594z"></path></g><g opacity="1" transform="matrix(1,0,0,1,99.09400177001953,99.31199645996094)"><path stroke-linecap="round" stroke-linejoin="round" fill-opacity="0" stroke="rgb(218,68,61)" stroke-opacity="1" stroke-width="12.373" d=" M-7.339000225067139,-7.340000152587891 C-7.339000225067139,-7.340000152587891 7.339000225067139,7.340000152587891 7.339000225067139,7.340000152587891"></path></g><g opacity="1" transform="matrix(1,0,0,1,0,0)"><path stroke-linecap="round" stroke-linejoin="round" fill-opacity="0" stroke="rgb(218,68,61)" stroke-opacity="1" stroke-width="12.373" d=" M64.31400299072266,103.56099700927734 C64.31400299072266,103.56099700927734 64.31400299072266,124.31999969482422 64.31400299072266,124.31999969482422"></path></g><g opacity="1" transform="matrix(1,0,0,1,0,0)"><path stroke-linecap="round" stroke-linejoin="round" fill-opacity="0" stroke="rgb(218,68,61)" stroke-opacity="1" stroke-width="12.373" d=" M102.96499633789062,64.375 C102.96499633789062,64.375 123.7239990234375,64.375 123.7239990234375,64.375"></path></g></g><g transform="matrix(0.9971320629119873,0,0,1.111109972000122,113.6510238647461,501.9347839355469)" opacity="1" style="display: block;"><g opacity="1" transform="matrix(1,0,0,1,225.37100219726562,109.17500305175781)"><path fill="rgb(230,169,87)" fill-opacity="1" d=" M45.88600158691406,108.86000061035156 C45.88600158691406,108.86000061035156 -45.88600158691406,108.86000061035156 -45.88600158691406,108.86000061035156 C-144.83099365234375,108.86000061035156 -225.04100036621094,28.649999618530273 -225.04100036621094,-70.29399871826172 C-225.04100036621094,-70.29399871826172 -225.04100036621094,-108.86000061035156 -225.04100036621094,-108.86000061035156 C-225.04100036621094,-108.86000061035156 225.04100036621094,-108.86000061035156 225.04100036621094,-108.86000061035156 C225.04100036621094,-108.86000061035156 225.04100036621094,-70.29399871826172 225.04100036621094,-70.29399871826172 C225.04100036621094,28.649999618530273 144.8300018310547,108.86000061035156 45.88600158691406,108.86000061035156z"></path></g></g><g transform="matrix(0.9971320629119873,0,0,1.111109972000122,174.47608947753906,302.10137939453125)" opacity="1" style="display: block;"><g opacity="1" transform="matrix(1,0,0,1,54.39500045776367,54.32500076293945)"><path fill="rgb(255,255,255)" fill-opacity="1" d=" M53.297000885009766,30.231000900268555 C30.231000900268555,53.29600143432617 -7.165999889373779,53.29600143432617 -30.23200035095215,30.231000900268555 C-53.297000885009766,7.165999889373779 -53.297000885009766,-30.231000900268555 -30.23200035095215,-53.297000885009766 C-30.23200035095215,-53.297000885009766 53.297000885009766,30.231000900268555 53.297000885009766,30.231000900268555z"></path></g><g opacity="1" transform="matrix(1,0,0,1,60.1609992980957,48.560001373291016)"><path fill="rgb(247,209,100)" fill-opacity="1" d=" M-15.116000175476074,15.114999771118164 C-3.5820000171661377,26.648000717163086 15.116000175476074,26.648000717163086 26.648000717163086,15.116999626159668 C26.648000717163086,15.116999626159668 -15.116000175476074,-26.648000717163086 -15.116000175476074,-26.648000717163086 C-26.648000717163086,-15.114999771118164 -26.648000717163086,3.5829999446868896 -15.116000175476074,15.114999771118164z"></path></g></g><g transform="matrix(0.9971320629119873,0,0,1.111109972000122,294.1319274902344,16.10137939453125)" opacity="1" style="display: block;"><g opacity="1" transform="matrix(1,0,0,1,53.92399978637695,54.26100158691406)"><path fill="rgb(235,99,95)" fill-opacity="1" d=" M53.297000885009766,30.231000900268555 C30.23200035095215,53.29600143432617 -7.165999889373779,53.29600143432617 -30.23200035095215,30.231000900268555 C-53.297000885009766,7.165999889373779 -53.297000885009766,-30.231000900268555 -30.23200035095215,-53.297000885009766 C-30.23200035095215,-53.297000885009766 53.297000885009766,30.231000900268555 53.297000885009766,30.231000900268555z"></path></g><g opacity="1" transform="matrix(1,0,0,1,42.42300033569336,65.76200103759766)"><path stroke-linecap="round" stroke-linejoin="round" fill-opacity="0" stroke="rgb(239,178,175)" stroke-opacity="1" stroke-width="8.176" d=" M4.849999904632568,-4.849999904632568 C4.849999904632568,-4.849999904632568 -4.849999904632568,4.849999904632568 -4.849999904632568,4.849999904632568"></path></g><g opacity="1" transform="matrix(1,0,0,1,0,0)"><path stroke-linecap="round" stroke-linejoin="round" fill-opacity="0" stroke="rgb(239,178,175)" stroke-opacity="1" stroke-width="8.176" d=" M65.40499877929688,68.56999969482422 C65.40499877929688,68.56999969482422 65.40499877929688,82.28700256347656 65.40499877929688,82.28700256347656"></path></g><g opacity="1" transform="matrix(1,0,0,1,0,0)"><path stroke-linecap="round" stroke-linejoin="round" fill-opacity="0" stroke="rgb(239,178,175)" stroke-opacity="1" stroke-width="8.176" d=" M39.86600112915039,42.676998138427734 C39.86600112915039,42.676998138427734 26.14900016784668,42.676998138427734 26.14900016784668,42.676998138427734"></path></g></g><g transform="matrix(0.9971320629119873,0,0,1.111109972000122,437.71893310546875,147.26806640625)" opacity="1" style="display: block;"><g opacity="1" transform="matrix(1,0,0,1,40.698001861572266,60.17399978637695)"><path fill="rgb(179,227,115)" fill-opacity="1" d=" M1.406000018119812,25.770000457763672 C1.406000018119812,25.770000457763672 -9.027999877929688,24.52400016784668 -9.027999877929688,24.52400016784668 C-11.197999954223633,24.264999389648438 -12.809000015258789,21.972999572753906 -12.857000350952148,19.062999725341797 C-13.031000137329102,8.63599967956543 -15.78600025177002,-9.854999542236328 -12.468999862670898,-20.69700050354004 C-10.836999893188477,-26.0310001373291 -1.2000000476837158,2.7260000705718994 -1.2000000476837158,2.7260000705718994 C-1.2000000476837158,2.7260000705718994 15.237000465393066,-22.215999603271484 15.414999961853027,-17.36400032043457 C15.78600025177002,-7.230999946594238 9.093000411987305,11.039999961853027 6.420000076293945,21.347000122070312 C5.688000202178955,24.167999267578125 3.5810000896453857,26.030000686645508 1.406000018119812,25.770000457763672z"></path></g><g opacity="1" transform="matrix(1,0,0,1,43.95899963378906,26.13599967956543)"><path fill="rgb(106,174,153)" fill-opacity="1" d=" M23.586000442504883,2.819000005722046 C22.02899932861328,15.845000267028809 10.206999778747559,25.143999099731445 -2.819999933242798,23.586999893188477 C-15.847000122070312,22.02899932861328 -25.143999099731445,10.206999778747559 -23.58799934387207,-2.819999933242798 C-22.030000686645508,-15.847000122070312 -10.208000183105469,-25.143999099731445 2.818000078201294,-23.586999893188477 C15.845999717712402,-22.0310001373291 25.143999099731445,-10.208000183105469 23.586000442504883,2.819000005722046z"></path></g><g opacity="1" transform="matrix(1,0,0,1,19.099000930786133,33.96799850463867)"><path fill="rgb(106,174,153)" fill-opacity="1" d=" M17.246000289916992,2.061000108718872 C16.10700035095215,11.586000442504883 7.4629998207092285,18.385000228881836 -2.062000036239624,17.246000289916992 C-11.586999893188477,16.10700035095215 -18.385000228881836,7.4629998207092285 -17.246999740600586,-2.062000036239624 C-16.107999801635742,-11.586000442504883 -7.464000225067139,-18.385000228881836 2.059999942779541,-17.246999740600586 C11.586000442504883,-16.107999801635742 18.385000228881836,-7.4629998207092285 17.246000289916992,2.061000108718872z"></path></g><g opacity="1" transform="matrix(1,0,0,1,66.27300262451172,39.60599899291992)"><path fill="rgb(106,174,153)" fill-opacity="1" d=" M17.246000289916992,2.061000108718872 C16.10700035095215,11.586000442504883 7.4629998207092285,18.385000228881836 -2.062000036239624,17.246000289916992 C-11.586999893188477,16.10700035095215 -18.385000228881836,7.4629998207092285 -17.246000289916992,-2.062000036239624 C-16.107999801635742,-11.586000442504883 -7.464000225067139,-18.385000228881836 2.061000108718872,-17.246999740600586 C11.586000442504883,-16.107999801635742 18.385000228881836,-7.464000225067139 17.246000289916992,2.061000108718872z"></path></g></g><g transform="matrix(0.9971320629119873,0,0,1.111109972000122,124.61947631835938,128.04583740234375)" opacity="1" style="display: block;"><g opacity="1" transform="matrix(1,0,0,1,60.41999816894531,60.65800094604492)"><path fill="rgb(179,227,115)" fill-opacity="1" d=" M26.631000518798828,19.632999420166016 C26.631000518798828,19.632999420166016 17.479000091552734,27.881000518798828 17.479000091552734,27.881000518798828 C15.574999809265137,29.59600067138672 12.310999870300293,29.249000549316406 9.704999923706055,27.047000885009766 C0.36800000071525574,19.155000686645508 -18.077999114990234,7.322000026702881 -25.08799934387207,-3.9700000286102295 C-28.53700065612793,-9.524999618530273 4.28000020980835,4.15500020980835 4.28000020980835,4.15500020980835 C4.28000020980835,4.15500020980835 -5.052999973297119,-29.59600067138672 -0.6330000162124634,-26.010000228881836 C8.597000122070312,-18.520000457763672 19.55900001525879,1.4850000143051147 26.594999313354492,11.795999526977539 C28.520000457763672,14.618000030517578 28.538000106811523,17.915000915527344 26.631000518798828,19.632999420166016z"></path></g><g opacity="1" transform="matrix(1,0,0,1,35.69200134277344,32.5099983215332)"><path fill="rgb(106,174,153)" fill-opacity="1" d=" M20.687000274658203,-18.64299964904785 C30.983999252319336,-7.2179999351501465 30.06800079345703,10.390999794006348 18.64299964904785,20.687000274658203 C7.2179999351501465,30.982999801635742 -10.390000343322754,30.069000244140625 -20.68600082397461,18.643999099731445 C-30.982999801635742,7.218999862670898 -30.06800079345703,-10.390000343322754 -18.64299964904785,-20.68600082397461 C-7.2179999351501465,-30.982999801635742 10.390999794006348,-30.06800079345703 20.687000274658203,-18.64299964904785z"></path></g><g opacity="1" transform="matrix(1,0,0,1,23.424999237060547,60.494998931884766)"><path fill="rgb(106,174,153)" fill-opacity="1" d=" M15.12600040435791,-13.631999969482422 C22.655000686645508,-5.2779998779296875 21.986000061035156,7.5980000495910645 13.631999969482422,15.12600040435791 C5.2779998779296875,22.655000686645508 -7.5980000495910645,21.986000061035156 -15.12600040435791,13.631999969482422 C-22.655000686645508,5.2789998054504395 -21.986000061035156,-7.5960001945495605 -13.631999969482422,-15.125 C-5.2789998054504395,-22.65399932861328 7.5980000495910645,-21.986000061035156 15.12600040435791,-13.631999969482422z"></path></g><g opacity="1" transform="matrix(1,0,0,1,64.7979965209961,23.20800018310547)"><path fill="rgb(106,174,153)" fill-opacity="1" d=" M15.12600040435791,-13.631999969482422 C22.65399932861328,-5.2779998779296875 21.986000061035156,7.5980000495910645 13.631999969482422,15.12600040435791 C5.2779998779296875,22.655000686645508 -7.5970001220703125,21.986000061035156 -15.125,13.631999969482422 C-22.65399932861328,5.2789998054504395 -21.985000610351562,-7.5960001945495605 -13.630999565124512,-15.125 C-5.2779998779296875,-22.65399932861328 7.5970001220703125,-21.986000061035156 15.12600040435791,-13.631999969482422z"></path></g></g></g></svg>